<svg width="197" height="65" viewBox="0 0 197 65" fill="none" xmlns="http://www.w3.org/2000/svg">
<path d="M10.3603 49.9326V59.066H9.15926V52.2556L6.1236 59.066H5.2789L2.23004 52.2424V59.066H1.02898V49.9326H2.32243L5.70125 57.4822L9.08007 49.9326H10.3603ZM13.5983 50.8433V53.9186H16.9507V54.9085H13.5983V58.0761H17.3467V59.066H12.3972V49.8535H17.3467V50.8433H13.5983ZM24.0079 59.066L21.8169 55.3044H20.3651V59.066H19.164V49.8667H22.1337C22.8288 49.8667 23.4139 49.9854 23.8891 50.223C24.373 50.4606 24.7338 50.7818 24.9714 51.1865C25.2089 51.5913 25.3277 52.0532 25.3277 52.5723C25.3277 53.2059 25.1429 53.7646 24.7734 54.2486C24.4126 54.7325 23.8671 55.0537 23.1368 55.212L25.4465 59.066H24.0079ZM20.3651 54.3409H22.1337C22.7848 54.3409 23.2732 54.1826 23.5987 53.8658C23.9243 53.5402 24.0871 53.1091 24.0871 52.5723C24.0871 52.0268 23.9243 51.6045 23.5987 51.3053C23.282 51.0061 22.7936 50.8565 22.1337 50.8565H20.3651V54.3409ZM34.4268 59.066H33.2257L28.395 51.7408V59.066H27.194V49.8535H28.395L33.2257 57.1654V49.8535H34.4268V59.066ZM42.9098 59.1584C42.3026 59.1584 41.7571 59.0528 41.2732 58.8416C40.798 58.6217 40.4241 58.3225 40.1513 57.9441C39.8785 57.557 39.7377 57.1126 39.7289 56.6111H41.0092C41.0532 57.0422 41.2292 57.4074 41.5371 57.7066C41.8539 57.9969 42.3114 58.1421 42.9098 58.1421C43.4817 58.1421 43.9305 58.0013 44.256 57.7198C44.5904 57.4294 44.7576 57.0598 44.7576 56.6111C44.7576 56.2591 44.6608 55.9732 44.4672 55.7532C44.2736 55.5332 44.0317 55.366 43.7413 55.2516C43.4509 55.1373 43.0594 55.0141 42.5666 54.8821C41.9595 54.7237 41.4711 54.5653 41.1016 54.4069C40.7408 54.2486 40.4285 54.0022 40.1645 53.6678C39.9093 53.3247 39.7817 52.8671 39.7817 52.2952C39.7817 51.7936 39.9093 51.3493 40.1645 50.9621C40.4197 50.575 40.776 50.2758 41.2336 50.0646C41.6999 49.8535 42.2323 49.7479 42.8306 49.7479C43.6929 49.7479 44.3968 49.9634 44.9423 50.3946C45.4967 50.8257 45.8091 51.3977 45.8794 52.1104H44.5596C44.5156 51.7584 44.3308 51.4505 44.0053 51.1865C43.6797 50.9137 43.2485 50.7774 42.7118 50.7774C42.2103 50.7774 41.8011 50.9093 41.4843 51.1733C41.1676 51.4285 41.0092 51.7892 41.0092 52.2556C41.0092 52.5899 41.1016 52.8627 41.2864 53.0739C41.4799 53.2851 41.7131 53.4478 41.9859 53.5622C42.2675 53.6678 42.659 53.791 43.1606 53.9318C43.7677 54.099 44.256 54.2662 44.6256 54.4333C44.9951 54.5917 45.3119 54.8425 45.5759 55.1857C45.8398 55.52 45.9718 55.9776 45.9718 56.5583C45.9718 57.007 45.853 57.4294 45.6155 57.8254C45.3779 58.2213 45.0259 58.5425 44.5596 58.7888C44.0932 59.0352 43.5433 59.1584 42.9098 59.1584ZM49.2043 52.8231V57.0862C49.2043 57.4382 49.2791 57.689 49.4287 57.8385C49.5783 57.9793 49.8379 58.0497 50.2074 58.0497H51.0917V59.066H50.0094C49.3407 59.066 48.8392 58.912 48.5048 58.6041C48.1704 58.2961 48.0033 57.7902 48.0033 57.0862V52.8231H47.0662V51.8332H48.0033V50.0118H49.2043V51.8332H51.0917V52.8231H49.2043ZM52.0982 55.4232C52.0982 54.6841 52.2478 54.0374 52.547 53.483C52.8461 52.9199 53.2553 52.4844 53.7744 52.1764C54.3024 51.8684 54.8875 51.7144 55.5298 51.7144C56.1633 51.7144 56.7133 51.8508 57.1796 52.1236C57.646 52.3964 57.9935 52.7395 58.2223 53.1531V51.8332H59.4366V59.066H58.2223V57.7198C57.9847 58.1421 57.6284 58.4941 57.1532 58.7756C56.6869 59.0484 56.1413 59.1848 55.5166 59.1848C54.8743 59.1848 54.2936 59.0264 53.7744 58.7097C53.2553 58.3929 52.8461 57.9485 52.547 57.3766C52.2478 56.8047 52.0982 56.1535 52.0982 55.4232ZM58.2223 55.4364C58.2223 54.8909 58.1123 54.4157 57.8923 54.011C57.6724 53.6062 57.3732 53.2983 56.9948 53.0871C56.6253 52.8671 56.2161 52.7571 55.7674 52.7571C55.3186 52.7571 54.9095 52.8627 54.5399 53.0739C54.1704 53.2851 53.8756 53.593 53.6556 53.9978C53.4356 54.4025 53.3257 54.8777 53.3257 55.4232C53.3257 55.9776 53.4356 56.4615 53.6556 56.8751C53.8756 57.2798 54.1704 57.5922 54.5399 57.8122C54.9095 58.0233 55.3186 58.1289 55.7674 58.1289C56.2161 58.1289 56.6253 58.0233 56.9948 57.8122C57.3732 57.5922 57.6724 57.2798 57.8923 56.8751C58.1123 56.4615 58.2223 55.982 58.2223 55.4364ZM61.0175 55.4364C61.0175 54.6885 61.1671 54.0374 61.4663 53.483C61.7654 52.9199 62.179 52.4844 62.7069 52.1764C63.2436 51.8684 63.8552 51.7144 64.5415 51.7144C65.4302 51.7144 66.1605 51.93 66.7325 52.3612C67.3132 52.7923 67.6959 53.3907 67.8807 54.1562H66.5873C66.4641 53.7162 66.2221 53.3687 65.8614 53.1135C65.5094 52.8583 65.0694 52.7307 64.5415 52.7307C63.8552 52.7307 63.3008 52.9683 62.8785 53.4434C62.4561 53.9098 62.245 54.5741 62.245 55.4364C62.245 56.3075 62.4561 56.9806 62.8785 57.4558C63.3008 57.9309 63.8552 58.1685 64.5415 58.1685C65.0694 58.1685 65.5094 58.0453 65.8614 57.799C66.2133 57.5526 66.4553 57.2006 66.5873 56.7431H67.8807C67.6871 57.4822 67.3 58.0761 66.7193 58.5249C66.1385 58.9648 65.4126 59.1848 64.5415 59.1848C63.8552 59.1848 63.2436 59.0308 62.7069 58.7228C62.179 58.4149 61.7654 57.9793 61.4663 57.4162C61.1671 56.8531 61.0175 56.1931 61.0175 55.4364ZM73.5221 59.066L70.6844 55.872V59.066H69.4833V49.2991H70.6844V55.0405L73.4693 51.8332H75.1455L71.7403 55.4364L75.1587 59.066H73.5221ZM82.6587 49.8667C83.6618 49.8667 84.5285 50.0558 85.2588 50.4342C85.9979 50.8037 86.5611 51.3361 86.9482 52.0312C87.3442 52.7263 87.5422 53.5446 87.5422 54.4861C87.5422 55.4276 87.3442 56.2459 86.9482 56.9411C86.5611 57.6274 85.9979 58.1553 85.2588 58.5249C84.5285 58.8856 83.6618 59.066 82.6587 59.066H79.7946V49.8667H82.6587ZM82.6587 58.0761C83.8466 58.0761 84.7529 57.7638 85.3776 57.139C86.0023 56.5055 86.3147 55.6212 86.3147 54.4861C86.3147 53.3423 85.9979 52.4492 85.3644 51.8068C84.7397 51.1645 83.8378 50.8433 82.6587 50.8433H80.9957V58.0761H82.6587ZM95.7256 55.1725C95.7256 55.4012 95.7124 55.6432 95.686 55.8984H89.9051C89.9491 56.6111 90.1911 57.1698 90.631 57.5746C91.0798 57.9705 91.6209 58.1685 92.2544 58.1685C92.7736 58.1685 93.2047 58.0497 93.5479 57.8122C93.8998 57.5658 94.1462 57.2402 94.287 56.8355H95.5805C95.3869 57.5306 94.9997 58.0981 94.419 58.5381C93.8382 58.9692 93.1167 59.1848 92.2544 59.1848C91.5681 59.1848 90.9522 59.0308 90.4066 58.7228C89.8699 58.4149 89.4475 57.9793 89.1396 57.4162C88.8316 56.8443 88.6776 56.1843 88.6776 55.4364C88.6776 54.6885 88.8272 54.033 89.1264 53.4698C89.4256 52.9067 89.8435 52.4756 90.3802 52.1764C90.9258 51.8684 91.5505 51.7144 92.2544 51.7144C92.9408 51.7144 93.5479 51.864 94.0758 52.1632C94.6038 52.4624 95.0085 52.8759 95.2901 53.4039C95.5805 53.923 95.7256 54.5125 95.7256 55.1725ZM94.485 54.9217C94.485 54.4641 94.3838 54.0726 94.1814 53.747C93.979 53.4127 93.7019 53.1619 93.3499 52.9947C93.0067 52.8187 92.624 52.7307 92.2016 52.7307C91.5945 52.7307 91.0754 52.9243 90.6442 53.3115C90.2219 53.6986 89.9799 54.2354 89.9183 54.9217H94.485ZM100.003 57.9573L102.247 51.8332H103.527L100.69 59.066H99.2908L96.4531 51.8332H97.7466L100.003 57.9573ZM111.309 55.1725C111.309 55.4012 111.295 55.6432 111.269 55.8984H105.488C105.532 56.6111 105.774 57.1698 106.214 57.5746C106.663 57.9705 107.204 58.1685 107.837 58.1685C108.357 58.1685 108.788 58.0497 109.131 57.8122C109.483 57.5658 109.729 57.2402 109.87 56.8355H111.163C110.97 57.5306 110.583 58.0981 110.002 58.5381C109.421 58.9692 108.7 59.1848 107.837 59.1848C107.151 59.1848 106.535 59.0308 105.99 58.7228C105.453 58.4149 105.031 57.9793 104.723 57.4162C104.415 56.8443 104.261 56.1843 104.261 55.4364C104.261 54.6885 104.41 54.033 104.709 53.4698C105.009 52.9067 105.427 52.4756 105.963 52.1764C106.509 51.8684 107.134 51.7144 107.837 51.7144C108.524 51.7144 109.131 51.864 109.659 52.1632C110.187 52.4624 110.592 52.8759 110.873 53.4039C111.163 53.923 111.309 54.5125 111.309 55.1725ZM110.068 54.9217C110.068 54.4641 109.967 54.0726 109.764 53.747C109.562 53.4127 109.285 53.1619 108.933 52.9947C108.59 52.8187 108.207 52.7307 107.785 52.7307C107.178 52.7307 106.658 52.9243 106.227 53.3115C105.805 53.6986 105.563 54.2354 105.501 54.9217H110.068ZM114.095 49.2991V59.066H112.894V49.2991H114.095ZM119.297 59.1848C118.619 59.1848 118.003 59.0308 117.449 58.7228C116.903 58.4149 116.472 57.9793 116.155 57.4162C115.847 56.8443 115.693 56.1843 115.693 55.4364C115.693 54.6973 115.852 54.0462 116.168 53.483C116.494 52.9111 116.934 52.4756 117.488 52.1764C118.043 51.8684 118.663 51.7144 119.349 51.7144C120.036 51.7144 120.656 51.8684 121.21 52.1764C121.765 52.4756 122.2 52.9067 122.517 53.4698C122.843 54.033 123.005 54.6885 123.005 55.4364C123.005 56.1843 122.838 56.8443 122.504 57.4162C122.178 57.9793 121.734 58.4149 121.171 58.7228C120.608 59.0308 119.983 59.1848 119.297 59.1848ZM119.297 58.1289C119.728 58.1289 120.132 58.0277 120.511 57.8254C120.889 57.623 121.193 57.3194 121.421 56.9147C121.659 56.5099 121.778 56.0172 121.778 55.4364C121.778 54.8557 121.663 54.3629 121.435 53.9582C121.206 53.5534 120.907 53.2543 120.537 53.0607C120.168 52.8583 119.767 52.7571 119.336 52.7571C118.896 52.7571 118.491 52.8583 118.122 53.0607C117.761 53.2543 117.471 53.5534 117.251 53.9582C117.031 54.3629 116.921 54.8557 116.921 55.4364C116.921 56.026 117.026 56.5231 117.238 56.9279C117.458 57.3326 117.748 57.6362 118.109 57.8385C118.469 58.0321 118.865 58.1289 119.297 58.1289ZM125.786 53.1663C126.023 52.7527 126.375 52.4096 126.841 52.1368C127.317 51.8552 127.866 51.7144 128.491 51.7144C129.134 51.7144 129.714 51.8684 130.233 52.1764C130.761 52.4844 131.175 52.9199 131.474 53.483C131.773 54.0374 131.923 54.6841 131.923 55.4232C131.923 56.1535 131.773 56.8047 131.474 57.3766C131.175 57.9485 130.761 58.3929 130.233 58.7097C129.714 59.0264 129.134 59.1848 128.491 59.1848C127.875 59.1848 127.33 59.0484 126.855 58.7756C126.388 58.4941 126.032 58.1465 125.786 57.733V62.4976H124.584V51.8332H125.786V53.1663ZM130.695 55.4232C130.695 54.8777 130.585 54.4025 130.365 53.9978C130.145 53.593 129.846 53.2851 129.468 53.0739C129.098 52.8627 128.689 52.7571 128.24 52.7571C127.801 52.7571 127.391 52.8671 127.013 53.0871C126.643 53.2983 126.344 53.6106 126.115 54.0242C125.896 54.4289 125.786 54.8997 125.786 55.4364C125.786 55.982 125.896 56.4615 126.115 56.8751C126.344 57.2798 126.643 57.5922 127.013 57.8122C127.391 58.0233 127.801 58.1289 128.24 58.1289C128.689 58.1289 129.098 58.0233 129.468 57.8122C129.846 57.5922 130.145 57.2798 130.365 56.8751C130.585 56.4615 130.695 55.9776 130.695 55.4232ZM140.103 55.1725C140.103 55.4012 140.09 55.6432 140.063 55.8984H134.282C134.326 56.6111 134.568 57.1698 135.008 57.5746C135.457 57.9705 135.998 58.1685 136.632 58.1685C137.151 58.1685 137.582 58.0497 137.925 57.8122C138.277 57.5658 138.524 57.2402 138.664 56.8355H139.958C139.764 57.5306 139.377 58.0981 138.796 58.5381C138.216 58.9692 137.494 59.1848 136.632 59.1848C135.945 59.1848 135.33 59.0308 134.784 58.7228C134.247 58.4149 133.825 57.9793 133.517 57.4162C133.209 56.8443 133.055 56.1843 133.055 55.4364C133.055 54.6885 133.205 54.033 133.504 53.4698C133.803 52.9067 134.221 52.4756 134.758 52.1764C135.303 51.8684 135.928 51.7144 136.632 51.7144C137.318 51.7144 137.925 51.864 138.453 52.1632C138.981 52.4624 139.386 52.8759 139.667 53.4039C139.958 53.923 140.103 54.5125 140.103 55.1725ZM138.862 54.9217C138.862 54.4641 138.761 54.0726 138.559 53.747C138.356 53.4127 138.079 53.1619 137.727 52.9947C137.384 52.8187 137.001 52.7307 136.579 52.7307C135.972 52.7307 135.453 52.9243 135.022 53.3115C134.599 53.6986 134.357 54.2354 134.296 54.9217H138.862ZM142.889 53.0079C143.101 52.5943 143.4 52.2732 143.787 52.0444C144.183 51.8156 144.662 51.7012 145.226 51.7012V52.9419H144.909C143.563 52.9419 142.889 53.6722 142.889 55.1329V59.066H141.688V51.8332H142.889V53.0079Z" fill="#0052D4"/>
<path d="M9.94 17.03C12.93 17.03 15.516 18.404 16.889 20.465V10H23.799V39.9H16.889V36.668C15.637 38.729 13.253 40.224 9.94 40.224C4.404 40.224 0 35.699 0 28.587C0 21.475 4.405 17.03 9.94 17.03ZM11.96 23.051C9.37401 23.051 7.03101 24.99 7.03101 28.587C7.03101 32.184 9.37401 34.203 11.96 34.203C14.586 34.203 16.889 32.223 16.889 28.627C16.889 25.031 14.587 23.051 11.96 23.051Z" fill="url(#paint0_linear_11_58)"/>
<path d="M38.8259 40.193C32.1999 40.193 27.4319 35.748 27.4319 28.597C27.4319 21.445 32.1189 17 38.8259 17C45.4119 17 50.0589 21.364 50.0589 28.233C50.0589 28.879 50.0179 29.566 49.9379 30.253H34.3009C34.5439 33.203 36.3619 34.577 38.5839 34.577C40.5229 34.577 41.6139 33.607 42.1799 32.395H49.5339C48.4429 36.799 44.4429 40.193 38.8259 40.193ZM34.3409 26.415H42.9879C42.9879 23.951 41.0489 22.536 38.7449 22.536C36.4829 22.536 34.7449 23.91 34.3409 26.415Z" fill="url(#paint1_linear_11_58)"/>
<path d="M61.268 34.24L65.624 19.912H72.176L65.048 40H57.452L50.324 19.912H56.912L61.268 34.24Z" fill="url(#paint2_linear_11_58)"/>
<path d="M154.304 28.768V30.96H149.728V33.328H153.152V35.456H149.728V40H146.992V28.768H154.304ZM155.198 35.52C155.198 34.6027 155.369 33.7973 155.71 33.104C156.062 32.4107 156.537 31.8773 157.134 31.504C157.731 31.1307 158.398 30.944 159.134 30.944C159.763 30.944 160.313 31.072 160.782 31.328C161.262 31.584 161.63 31.92 161.886 32.336V31.072H164.622V40H161.886V38.736C161.619 39.152 161.246 39.488 160.766 39.744C160.297 40 159.747 40.128 159.118 40.128C158.393 40.128 157.731 39.9413 157.134 39.568C156.537 39.184 156.062 38.6453 155.71 37.952C155.369 37.248 155.198 36.4373 155.198 35.52ZM161.886 35.536C161.886 34.8533 161.694 34.3147 161.31 33.92C160.937 33.5253 160.478 33.328 159.934 33.328C159.39 33.328 158.926 33.5253 158.542 33.92C158.169 34.304 157.982 34.8373 157.982 35.52C157.982 36.2027 158.169 36.7467 158.542 37.152C158.926 37.5467 159.39 37.744 159.934 37.744C160.478 37.744 160.937 37.5467 161.31 37.152C161.694 36.7573 161.886 36.2187 161.886 35.536ZM169.337 32.56C169.657 32.0693 170.057 31.6853 170.537 31.408C171.017 31.12 171.551 30.976 172.137 30.976V33.872H171.385C170.703 33.872 170.191 34.0213 169.849 34.32C169.508 34.608 169.337 35.12 169.337 35.856V40H166.601V31.072H169.337V32.56ZM177.077 40.128C176.298 40.128 175.605 39.9947 174.997 39.728C174.389 39.4613 173.909 39.0987 173.557 38.64C173.205 38.1707 173.008 37.648 172.965 37.072H175.669C175.701 37.3813 175.845 37.632 176.101 37.824C176.357 38.016 176.672 38.112 177.045 38.112C177.386 38.112 177.648 38.048 177.829 37.92C178.021 37.7813 178.117 37.6053 178.117 37.392C178.117 37.136 177.984 36.9493 177.717 36.832C177.45 36.704 177.018 36.5653 176.421 36.416C175.781 36.2667 175.248 36.112 174.821 35.952C174.394 35.7813 174.026 35.52 173.717 35.168C173.408 34.8053 173.253 34.32 173.253 33.712C173.253 33.2 173.392 32.736 173.669 32.32C173.957 31.8933 174.373 31.5573 174.917 31.312C175.472 31.0667 176.128 30.944 176.885 30.944C178.005 30.944 178.885 31.2213 179.525 31.776C180.176 32.3307 180.549 33.0667 180.645 33.984H178.117C178.074 33.6747 177.936 33.4293 177.701 33.248C177.477 33.0667 177.178 32.976 176.805 32.976C176.485 32.976 176.24 33.04 176.069 33.168C175.898 33.2853 175.813 33.4507 175.813 33.664C175.813 33.92 175.946 34.112 176.213 34.24C176.49 34.368 176.917 34.496 177.493 34.624C178.154 34.7947 178.693 34.9653 179.109 35.136C179.525 35.296 179.888 35.5627 180.197 35.936C180.517 36.2987 180.682 36.7893 180.693 37.408C180.693 37.9307 180.544 38.4 180.245 38.816C179.957 39.2213 179.536 39.5413 178.981 39.776C178.437 40.0107 177.802 40.128 177.077 40.128ZM187.855 30.976C188.879 30.976 189.7 31.3173 190.319 32C190.938 32.672 191.247 33.6 191.247 34.784V40H188.527V35.152C188.527 34.5547 188.372 34.0907 188.063 33.76C187.754 33.4293 187.338 33.264 186.815 33.264C186.292 33.264 185.876 33.4293 185.567 33.76C185.258 34.0907 185.103 34.5547 185.103 35.152V40H182.367V28.16H185.103V32.272C185.38 31.8773 185.759 31.5627 186.239 31.328C186.719 31.0933 187.258 30.976 187.855 30.976ZM194.524 30.144C194.044 30.144 193.65 30.0053 193.34 29.728C193.042 29.44 192.892 29.088 192.892 28.672C192.892 28.2453 193.042 27.8933 193.34 27.616C193.65 27.328 194.044 27.184 194.524 27.184C194.994 27.184 195.378 27.328 195.676 27.616C195.986 27.8933 196.14 28.2453 196.14 28.672C196.14 29.088 195.986 29.44 195.676 29.728C195.378 30.0053 194.994 30.144 194.524 30.144ZM195.884 31.072V40H193.148V31.072H195.884Z" fill="url(#paint3_linear_11_58)"/>
<path d="M102.8 20.344L96.644 40H94.124L88.688 23.512L83.252 40H80.696L74.54 20.344H77.096L81.992 37.444L87.5 20.344H90.02L95.456 37.48L100.316 20.344H102.8Z" fill="url(#paint4_linear_11_58)"/>
<path d="M107.14 16.636C106.636 16.636 106.204 16.456 105.844 16.096C105.484 15.736 105.304 15.292 105.304 14.764C105.304 14.236 105.484 13.804 105.844 13.468C106.204 13.108 106.636 12.928 107.14 12.928C107.644 12.928 108.076 13.108 108.436 13.468C108.796 13.804 108.976 14.236 108.976 14.764C108.976 15.292 108.796 15.736 108.436 16.096C108.076 16.456 107.644 16.636 107.14 16.636ZM108.4 20.344V40H105.88V20.344H108.4Z" fill="url(#paint5_linear_11_58)"/>
<path d="M117.156 22.468V34.672C117.156 35.872 117.384 36.7 117.84 37.156C118.296 37.612 119.1 37.84 120.252 37.84H122.556V40H119.856C118.08 40 116.76 39.592 115.896 38.776C115.032 37.936 114.6 36.568 114.6 34.672V22.468H111.864V20.344H114.6V15.412H117.156V20.344H122.556V22.468H117.156Z" fill="url(#paint6_linear_11_58)"/>
<path d="M136.24 19.984C137.728 19.984 139.06 20.296 140.236 20.92C141.436 21.544 142.372 22.504 143.044 23.8C143.74 25.072 144.088 26.632 144.088 28.48V40H141.604V28.768C141.604 26.632 141.064 25 139.984 23.872C138.928 22.744 137.476 22.18 135.628 22.18C133.732 22.18 132.22 22.78 131.092 23.98C129.964 25.18 129.4 26.944 129.4 29.272V40H126.88V13.36H129.4V23.692C130.024 22.516 130.936 21.604 132.136 20.956C133.36 20.308 134.728 19.984 136.24 19.984Z" fill="url(#paint7_linear_11_58)"/>
<defs>
<linearGradient id="paint0_linear_11_58" x1="44.5432" y1="50.7287" x2="44.5432" y2="10.0002" gradientUnits="userSpaceOnUse">
<stop stop-color="#0052D4"/>
<stop offset="1" stop-color="#6FB1FC"/>
</linearGradient>
<linearGradient id="paint1_linear_11_58" x1="44.5431" y1="50.6987" x2="44.5431" y2="9.9702" gradientUnits="userSpaceOnUse">
<stop stop-color="#0052D4"/>
<stop offset="1" stop-color="#6FB1FC"/>
</linearGradient>
<linearGradient id="paint2_linear_11_58" x1="100" y1="41.5" x2="99.5" y2="14.5" gradientUnits="userSpaceOnUse">
<stop stop-color="#0052D4"/>
<stop offset="1" stop-color="#6FB1FC"/>
</linearGradient>
<linearGradient id="paint3_linear_11_58" x1="255.319" y1="47.1111" x2="255.9" y2="29.1451" gradientUnits="userSpaceOnUse">
<stop stop-color="#0052D4"/>
<stop offset="1" stop-color="#6FB1FC"/>
</linearGradient>
<linearGradient id="paint4_linear_11_58" x1="138.565" y1="31.1111" x2="138.565" y2="13.3333" gradientUnits="userSpaceOnUse">
<stop stop-color="#0052D4"/>
<stop offset="1" stop-color="#6FB1FC"/>
</linearGradient>
<linearGradient id="paint5_linear_11_58" x1="122.37" y1="31.1111" x2="122.37" y2="13.3333" gradientUnits="userSpaceOnUse">
<stop stop-color="#0052D4"/>
<stop offset="1" stop-color="#6FB1FC"/>
</linearGradient>
<linearGradient id="paint6_linear_11_58" x1="138.978" y1="31.1111" x2="138.978" y2="13.3333" gradientUnits="userSpaceOnUse">
<stop stop-color="#0052D4"/>
<stop offset="1" stop-color="#6FB1FC"/>
</linearGradient>
<linearGradient id="paint7_linear_11_58" x1="173.5" y1="31.1111" x2="173.5" y2="13.3333" gradientUnits="userSpaceOnUse">
<stop stop-color="#0052D4"/>
<stop offset="1" stop-color="#6FB1FC"/>
</linearGradient>
</defs>
</svg>
