<svg width="281" height="81" viewBox="0 0 281 81" fill="none" xmlns="http://www.w3.org/2000/svg">
<path d="M25.352 80.264L0 54.913L25.352 29.562L31.105 35.315L11.507 54.913L31.105 74.511L25.352 80.264Z" fill="url(#paint0_linear_11_60)"/>
<path d="M35.1949 70.451L29.4419 64.697L58.9139 35.225L29.4419 5.753L35.1949 0L70.4199 35.225L35.1949 70.451Z" fill="url(#paint1_linear_11_60)"/>
<path d="M70.4199 35.225H58.9139L29.4419 5.753L35.1949 0L70.4199 35.225Z" fill="url(#paint2_linear_11_60)"/>
<path d="M11.507 54.913H0L25.352 29.562L31.105 35.315L11.507 54.913Z" fill="url(#paint3_linear_11_60)"/>
<path d="M94.3603 56.9326V66.066H93.1593V59.2556L90.1236 66.066H89.2789L86.23 59.2424V66.066H85.029V56.9326H86.3224L89.7012 64.4822L93.0801 56.9326H94.3603ZM97.5983 57.8433V60.9186H100.951V61.9085H97.5983V65.0761H101.347V66.066H96.3972V56.8535H101.347V57.8433H97.5983ZM108.008 66.066L105.817 62.3044H104.365V66.066H103.164V56.8667H106.134C106.829 56.8667 107.414 56.9854 107.889 57.223C108.373 57.4606 108.734 57.7818 108.971 58.1865C109.209 58.5913 109.328 59.0532 109.328 59.5723C109.328 60.2059 109.143 60.7646 108.773 61.2486C108.413 61.7325 107.867 62.0537 107.137 62.212L109.447 66.066H108.008ZM104.365 61.3409H106.134C106.785 61.3409 107.273 61.1826 107.599 60.8658C107.924 60.5402 108.087 60.1091 108.087 59.5723C108.087 59.0268 107.924 58.6045 107.599 58.3053C107.282 58.0061 106.794 57.8565 106.134 57.8565H104.365V61.3409ZM118.427 66.066H117.226L112.395 58.7408V66.066H111.194V56.8535H112.395L117.226 64.1654V56.8535H118.427V66.066ZM126.91 66.1584C126.303 66.1584 125.757 66.0528 125.273 65.8416C124.798 65.6217 124.424 65.3225 124.151 64.9441C123.879 64.557 123.738 64.1126 123.729 63.6111H125.009C125.053 64.0422 125.229 64.4074 125.537 64.7066C125.854 64.9969 126.311 65.1421 126.91 65.1421C127.482 65.1421 127.93 65.0013 128.256 64.7198C128.59 64.4294 128.758 64.0598 128.758 63.6111C128.758 63.2591 128.661 62.9732 128.467 62.7532C128.274 62.5332 128.032 62.366 127.741 62.2516C127.451 62.1373 127.059 62.0141 126.567 61.8821C125.959 61.7237 125.471 61.5653 125.102 61.4069C124.741 61.2486 124.428 61.0022 124.164 60.6678C123.909 60.3247 123.782 59.8671 123.782 59.2952C123.782 58.7936 123.909 58.3493 124.164 57.9621C124.42 57.575 124.776 57.2758 125.234 57.0646C125.7 56.8535 126.232 56.7479 126.831 56.7479C127.693 56.7479 128.397 56.9634 128.942 57.3946C129.497 57.8257 129.809 58.3977 129.879 59.1104H128.56C128.516 58.7584 128.331 58.4505 128.005 58.1865C127.68 57.9137 127.249 57.7774 126.712 57.7774C126.21 57.7774 125.801 57.9093 125.484 58.1733C125.168 58.4285 125.009 58.7892 125.009 59.2556C125.009 59.5899 125.102 59.8627 125.286 60.0739C125.48 60.2851 125.713 60.4478 125.986 60.5622C126.267 60.6678 126.659 60.791 127.161 60.9318C127.768 61.099 128.256 61.2662 128.626 61.4333C128.995 61.5917 129.312 61.8425 129.576 62.1857C129.84 62.52 129.972 62.9776 129.972 63.5583C129.972 64.007 129.853 64.4294 129.615 64.8254C129.378 65.2213 129.026 65.5425 128.56 65.7888C128.093 66.0352 127.543 66.1584 126.91 66.1584ZM133.204 59.8231V64.0862C133.204 64.4382 133.279 64.689 133.429 64.8385C133.578 64.9793 133.838 65.0497 134.207 65.0497H135.092V66.066H134.009C133.341 66.066 132.839 65.912 132.505 65.6041C132.17 65.2961 132.003 64.7902 132.003 64.0862V59.8231H131.066V58.8332H132.003V57.0118H133.204V58.8332H135.092V59.8231H133.204ZM136.098 62.4232C136.098 61.6841 136.248 61.0374 136.547 60.483C136.846 59.9199 137.255 59.4844 137.774 59.1764C138.302 58.8684 138.887 58.7144 139.53 58.7144C140.163 58.7144 140.713 58.8508 141.18 59.1236C141.646 59.3964 141.994 59.7395 142.222 60.1531V58.8332H143.437V66.066H142.222V64.7198C141.985 65.1421 141.628 65.4941 141.153 65.7756C140.687 66.0484 140.141 66.1848 139.517 66.1848C138.874 66.1848 138.294 66.0264 137.774 65.7097C137.255 65.3929 136.846 64.9485 136.547 64.3766C136.248 63.8047 136.098 63.1535 136.098 62.4232ZM142.222 62.4364C142.222 61.8909 142.112 61.4157 141.892 61.011C141.672 60.6062 141.373 60.2983 140.995 60.0871C140.625 59.8671 140.216 59.7571 139.767 59.7571C139.319 59.7571 138.909 59.8627 138.54 60.0739C138.17 60.2851 137.876 60.593 137.656 60.9978C137.436 61.4025 137.326 61.8777 137.326 62.4232C137.326 62.9776 137.436 63.4615 137.656 63.8751C137.876 64.2798 138.17 64.5922 138.54 64.8122C138.909 65.0233 139.319 65.1289 139.767 65.1289C140.216 65.1289 140.625 65.0233 140.995 64.8122C141.373 64.5922 141.672 64.2798 141.892 63.8751C142.112 63.4615 142.222 62.982 142.222 62.4364ZM145.018 62.4364C145.018 61.6885 145.167 61.0374 145.466 60.483C145.765 59.9199 146.179 59.4844 146.707 59.1764C147.244 58.8684 147.855 58.7144 148.542 58.7144C149.43 58.7144 150.161 58.93 150.732 59.3612C151.313 59.7923 151.696 60.3907 151.881 61.1562H150.587C150.464 60.7162 150.222 60.3687 149.861 60.1135C149.509 59.8583 149.069 59.7307 148.542 59.7307C147.855 59.7307 147.301 59.9683 146.878 60.4434C146.456 60.9098 146.245 61.5741 146.245 62.4364C146.245 63.3075 146.456 63.9806 146.878 64.4558C147.301 64.9309 147.855 65.1685 148.542 65.1685C149.069 65.1685 149.509 65.0453 149.861 64.799C150.213 64.5526 150.455 64.2006 150.587 63.7431H151.881C151.687 64.4822 151.3 65.0761 150.719 65.5249C150.139 65.9648 149.413 66.1848 148.542 66.1848C147.855 66.1848 147.244 66.0308 146.707 65.7228C146.179 65.4149 145.765 64.9793 145.466 64.4162C145.167 63.8531 145.018 63.1931 145.018 62.4364ZM157.522 66.066L154.684 62.872V66.066H153.483V56.2991H154.684V62.0405L157.469 58.8332H159.145L155.74 62.4364L159.159 66.066H157.522ZM166.659 56.8667C167.662 56.8667 168.528 57.0558 169.259 57.4342C169.998 57.8037 170.561 58.3361 170.948 59.0312C171.344 59.7263 171.542 60.5446 171.542 61.4861C171.542 62.4276 171.344 63.2459 170.948 63.9411C170.561 64.6274 169.998 65.1553 169.259 65.5249C168.528 65.8856 167.662 66.066 166.659 66.066H163.795V56.8667H166.659ZM166.659 65.0761C167.847 65.0761 168.753 64.7638 169.378 64.139C170.002 63.5055 170.315 62.6212 170.315 61.4861C170.315 60.3423 169.998 59.4492 169.364 58.8068C168.74 58.1645 167.838 57.8433 166.659 57.8433H164.996V65.0761H166.659ZM179.726 62.1725C179.726 62.4012 179.712 62.6432 179.686 62.8984H173.905C173.949 63.6111 174.191 64.1698 174.631 64.5746C175.08 64.9705 175.621 65.1685 176.254 65.1685C176.774 65.1685 177.205 65.0497 177.548 64.8122C177.9 64.5658 178.146 64.2402 178.287 63.8355H179.58C179.387 64.5306 179 65.0981 178.419 65.5381C177.838 65.9692 177.117 66.1848 176.254 66.1848C175.568 66.1848 174.952 66.0308 174.407 65.7228C173.87 65.4149 173.448 64.9793 173.14 64.4162C172.832 63.8443 172.678 63.1843 172.678 62.4364C172.678 61.6885 172.827 61.033 173.126 60.4698C173.426 59.9067 173.844 59.4756 174.38 59.1764C174.926 58.8684 175.551 58.7144 176.254 58.7144C176.941 58.7144 177.548 58.864 178.076 59.1632C178.604 59.4624 179.009 59.8759 179.29 60.4039C179.58 60.923 179.726 61.5125 179.726 62.1725ZM178.485 61.9217C178.485 61.4641 178.384 61.0726 178.181 60.747C177.979 60.4127 177.702 60.1619 177.35 59.9947C177.007 59.8187 176.624 59.7307 176.202 59.7307C175.595 59.7307 175.075 59.9243 174.644 60.3115C174.222 60.6986 173.98 61.2354 173.918 61.9217H178.485ZM184.003 64.9573L186.247 58.8332H187.527L184.69 66.066H183.291L180.453 58.8332H181.747L184.003 64.9573ZM195.309 62.1725C195.309 62.4012 195.295 62.6432 195.269 62.8984H189.488C189.532 63.6111 189.774 64.1698 190.214 64.5746C190.663 64.9705 191.204 65.1685 191.837 65.1685C192.357 65.1685 192.788 65.0497 193.131 64.8122C193.483 64.5658 193.729 64.2402 193.87 63.8355H195.163C194.97 64.5306 194.583 65.0981 194.002 65.5381C193.421 65.9692 192.7 66.1848 191.837 66.1848C191.151 66.1848 190.535 66.0308 189.99 65.7228C189.453 65.4149 189.031 64.9793 188.723 64.4162C188.415 63.8443 188.261 63.1843 188.261 62.4364C188.261 61.6885 188.41 61.033 188.709 60.4698C189.009 59.9067 189.427 59.4756 189.963 59.1764C190.509 58.8684 191.134 58.7144 191.837 58.7144C192.524 58.7144 193.131 58.864 193.659 59.1632C194.187 59.4624 194.592 59.8759 194.873 60.4039C195.163 60.923 195.309 61.5125 195.309 62.1725ZM194.068 61.9217C194.068 61.4641 193.967 61.0726 193.764 60.747C193.562 60.4127 193.285 60.1619 192.933 59.9947C192.59 59.8187 192.207 59.7307 191.785 59.7307C191.178 59.7307 190.658 59.9243 190.227 60.3115C189.805 60.6986 189.563 61.2354 189.501 61.9217H194.068ZM198.095 56.2991V66.066H196.894V56.2991H198.095ZM203.297 66.1848C202.619 66.1848 202.003 66.0308 201.449 65.7228C200.903 65.4149 200.472 64.9793 200.155 64.4162C199.847 63.8443 199.693 63.1843 199.693 62.4364C199.693 61.6973 199.852 61.0462 200.168 60.483C200.494 59.9111 200.934 59.4756 201.488 59.1764C202.043 58.8684 202.663 58.7144 203.349 58.7144C204.036 58.7144 204.656 58.8684 205.21 59.1764C205.765 59.4756 206.2 59.9067 206.517 60.4698C206.843 61.033 207.005 61.6885 207.005 62.4364C207.005 63.1843 206.838 63.8443 206.504 64.4162C206.178 64.9793 205.734 65.4149 205.171 65.7228C204.608 66.0308 203.983 66.1848 203.297 66.1848ZM203.297 65.1289C203.728 65.1289 204.132 65.0277 204.511 64.8254C204.889 64.623 205.193 64.3194 205.421 63.9147C205.659 63.5099 205.778 63.0172 205.778 62.4364C205.778 61.8557 205.663 61.3629 205.435 60.9582C205.206 60.5534 204.907 60.2543 204.537 60.0607C204.168 59.8583 203.767 59.7571 203.336 59.7571C202.896 59.7571 202.491 59.8583 202.122 60.0607C201.761 60.2543 201.471 60.5534 201.251 60.9582C201.031 61.3629 200.921 61.8557 200.921 62.4364C200.921 63.026 201.026 63.5231 201.238 63.9279C201.458 64.3326 201.748 64.6362 202.109 64.8385C202.469 65.0321 202.865 65.1289 203.297 65.1289ZM209.786 60.1663C210.023 59.7527 210.375 59.4096 210.841 59.1368C211.317 58.8552 211.866 58.7144 212.491 58.7144C213.134 58.7144 213.714 58.8684 214.233 59.1764C214.761 59.4844 215.175 59.9199 215.474 60.483C215.773 61.0374 215.923 61.6841 215.923 62.4232C215.923 63.1535 215.773 63.8047 215.474 64.3766C215.175 64.9485 214.761 65.3929 214.233 65.7097C213.714 66.0264 213.134 66.1848 212.491 66.1848C211.875 66.1848 211.33 66.0484 210.855 65.7756C210.388 65.4941 210.032 65.1465 209.786 64.733V69.4976H208.584V58.8332H209.786V60.1663ZM214.695 62.4232C214.695 61.8777 214.585 61.4025 214.365 60.9978C214.145 60.593 213.846 60.2851 213.468 60.0739C213.098 59.8627 212.689 59.7571 212.24 59.7571C211.801 59.7571 211.391 59.8671 211.013 60.0871C210.643 60.2983 210.344 60.6106 210.115 61.0242C209.896 61.4289 209.786 61.8997 209.786 62.4364C209.786 62.982 209.896 63.4615 210.115 63.8751C210.344 64.2798 210.643 64.5922 211.013 64.8122C211.391 65.0233 211.801 65.1289 212.24 65.1289C212.689 65.1289 213.098 65.0233 213.468 64.8122C213.846 64.5922 214.145 64.2798 214.365 63.8751C214.585 63.4615 214.695 62.9776 214.695 62.4232ZM224.103 62.1725C224.103 62.4012 224.09 62.6432 224.063 62.8984H218.282C218.326 63.6111 218.568 64.1698 219.008 64.5746C219.457 64.9705 219.998 65.1685 220.632 65.1685C221.151 65.1685 221.582 65.0497 221.925 64.8122C222.277 64.5658 222.524 64.2402 222.664 63.8355H223.958C223.764 64.5306 223.377 65.0981 222.796 65.5381C222.216 65.9692 221.494 66.1848 220.632 66.1848C219.945 66.1848 219.33 66.0308 218.784 65.7228C218.247 65.4149 217.825 64.9793 217.517 64.4162C217.209 63.8443 217.055 63.1843 217.055 62.4364C217.055 61.6885 217.205 61.033 217.504 60.4698C217.803 59.9067 218.221 59.4756 218.758 59.1764C219.303 58.8684 219.928 58.7144 220.632 58.7144C221.318 58.7144 221.925 58.864 222.453 59.1632C222.981 59.4624 223.386 59.8759 223.667 60.4039C223.958 60.923 224.103 61.5125 224.103 62.1725ZM222.862 61.9217C222.862 61.4641 222.761 61.0726 222.559 60.747C222.356 60.4127 222.079 60.1619 221.727 59.9947C221.384 59.8187 221.001 59.7307 220.579 59.7307C219.972 59.7307 219.453 59.9243 219.022 60.3115C218.599 60.6986 218.357 61.2354 218.296 61.9217H222.862ZM226.889 60.0079C227.101 59.5943 227.4 59.2732 227.787 59.0444C228.183 58.8156 228.662 58.7012 229.226 58.7012V59.9419H228.909C227.563 59.9419 226.889 60.6722 226.889 62.1329V66.066H225.688V58.8332H226.889V60.0079Z" fill="#0052D4"/>
<path d="M93.94 24.03C96.93 24.03 99.516 25.404 100.889 27.465V17H107.799V46.9H100.889V43.668C99.637 45.729 97.253 47.224 93.94 47.224C88.404 47.224 84 42.699 84 35.587C84 28.475 88.405 24.03 93.94 24.03ZM95.96 30.051C93.374 30.051 91.031 31.99 91.031 35.587C91.031 39.184 93.374 41.203 95.96 41.203C98.586 41.203 100.889 39.223 100.889 35.627C100.889 32.031 98.587 30.051 95.96 30.051Z" fill="url(#paint4_linear_11_60)"/>
<path d="M122.826 47.193C116.2 47.193 111.432 42.748 111.432 35.597C111.432 28.445 116.119 24 122.826 24C129.412 24 134.059 28.364 134.059 35.233C134.059 35.879 134.018 36.566 133.938 37.253H118.301C118.544 40.203 120.362 41.577 122.584 41.577C124.523 41.577 125.614 40.607 126.18 39.395H133.534C132.443 43.799 128.443 47.193 122.826 47.193ZM118.341 33.415H126.988C126.988 30.951 125.049 29.536 122.745 29.536C120.483 29.536 118.745 30.91 118.341 33.415Z" fill="url(#paint5_linear_11_60)"/>
<path d="M145.268 41.24L149.624 26.912H156.176L149.048 47H141.452L134.324 26.912H140.912L145.268 41.24Z" fill="url(#paint6_linear_11_60)"/>
<path d="M238.304 35.768V37.96H233.728V40.328H237.152V42.456H233.728V47H230.992V35.768H238.304ZM239.198 42.52C239.198 41.6027 239.369 40.7973 239.71 40.104C240.062 39.4107 240.537 38.8773 241.134 38.504C241.731 38.1307 242.398 37.944 243.134 37.944C243.763 37.944 244.313 38.072 244.782 38.328C245.262 38.584 245.63 38.92 245.886 39.336V38.072H248.622V47H245.886V45.736C245.619 46.152 245.246 46.488 244.766 46.744C244.297 47 243.747 47.128 243.118 47.128C242.393 47.128 241.731 46.9413 241.134 46.568C240.537 46.184 240.062 45.6453 239.71 44.952C239.369 44.248 239.198 43.4373 239.198 42.52ZM245.886 42.536C245.886 41.8533 245.694 41.3147 245.31 40.92C244.937 40.5253 244.478 40.328 243.934 40.328C243.39 40.328 242.926 40.5253 242.542 40.92C242.169 41.304 241.982 41.8373 241.982 42.52C241.982 43.2027 242.169 43.7467 242.542 44.152C242.926 44.5467 243.39 44.744 243.934 44.744C244.478 44.744 244.937 44.5467 245.31 44.152C245.694 43.7573 245.886 43.2187 245.886 42.536ZM253.337 39.56C253.657 39.0693 254.057 38.6853 254.537 38.408C255.017 38.12 255.551 37.976 256.137 37.976V40.872H255.385C254.703 40.872 254.191 41.0213 253.849 41.32C253.508 41.608 253.337 42.12 253.337 42.856V47H250.601V38.072H253.337V39.56ZM261.077 47.128C260.298 47.128 259.605 46.9947 258.997 46.728C258.389 46.4613 257.909 46.0987 257.557 45.64C257.205 45.1707 257.008 44.648 256.965 44.072H259.669C259.701 44.3813 259.845 44.632 260.101 44.824C260.357 45.016 260.672 45.112 261.045 45.112C261.386 45.112 261.648 45.048 261.829 44.92C262.021 44.7813 262.117 44.6053 262.117 44.392C262.117 44.136 261.984 43.9493 261.717 43.832C261.45 43.704 261.018 43.5653 260.421 43.416C259.781 43.2667 259.248 43.112 258.821 42.952C258.394 42.7813 258.026 42.52 257.717 42.168C257.408 41.8053 257.253 41.32 257.253 40.712C257.253 40.2 257.392 39.736 257.669 39.32C257.957 38.8933 258.373 38.5573 258.917 38.312C259.472 38.0667 260.128 37.944 260.885 37.944C262.005 37.944 262.885 38.2213 263.525 38.776C264.176 39.3307 264.549 40.0667 264.645 40.984H262.117C262.074 40.6747 261.936 40.4293 261.701 40.248C261.477 40.0667 261.178 39.976 260.805 39.976C260.485 39.976 260.24 40.04 260.069 40.168C259.898 40.2853 259.813 40.4507 259.813 40.664C259.813 40.92 259.946 41.112 260.213 41.24C260.49 41.368 260.917 41.496 261.493 41.624C262.154 41.7947 262.693 41.9653 263.109 42.136C263.525 42.296 263.888 42.5627 264.197 42.936C264.517 43.2987 264.682 43.7893 264.693 44.408C264.693 44.9307 264.544 45.4 264.245 45.816C263.957 46.2213 263.536 46.5413 262.981 46.776C262.437 47.0107 261.802 47.128 261.077 47.128ZM271.855 37.976C272.879 37.976 273.7 38.3173 274.319 39C274.938 39.672 275.247 40.6 275.247 41.784V47H272.527V42.152C272.527 41.5547 272.372 41.0907 272.063 40.76C271.754 40.4293 271.338 40.264 270.815 40.264C270.292 40.264 269.876 40.4293 269.567 40.76C269.258 41.0907 269.103 41.5547 269.103 42.152V47H266.367V35.16H269.103V39.272C269.38 38.8773 269.759 38.5627 270.239 38.328C270.719 38.0933 271.258 37.976 271.855 37.976ZM278.524 37.144C278.044 37.144 277.65 37.0053 277.34 36.728C277.042 36.44 276.892 36.088 276.892 35.672C276.892 35.2453 277.042 34.8933 277.34 34.616C277.65 34.328 278.044 34.184 278.524 34.184C278.994 34.184 279.378 34.328 279.676 34.616C279.986 34.8933 280.14 35.2453 280.14 35.672C280.14 36.088 279.986 36.44 279.676 36.728C279.378 37.0053 278.994 37.144 278.524 37.144ZM279.884 38.072V47H277.148V38.072H279.884Z" fill="url(#paint7_linear_11_60)"/>
<path d="M186.8 27.344L180.644 47H178.124L172.688 30.512L167.252 47H164.696L158.54 27.344H161.096L165.992 44.444L171.5 27.344H174.02L179.456 44.48L184.316 27.344H186.8Z" fill="url(#paint8_linear_11_60)"/>
<path d="M191.14 23.636C190.636 23.636 190.204 23.456 189.844 23.096C189.484 22.736 189.304 22.292 189.304 21.764C189.304 21.236 189.484 20.804 189.844 20.468C190.204 20.108 190.636 19.928 191.14 19.928C191.644 19.928 192.076 20.108 192.436 20.468C192.796 20.804 192.976 21.236 192.976 21.764C192.976 22.292 192.796 22.736 192.436 23.096C192.076 23.456 191.644 23.636 191.14 23.636ZM192.4 27.344V47H189.88V27.344H192.4Z" fill="url(#paint9_linear_11_60)"/>
<path d="M201.156 29.468V41.672C201.156 42.872 201.384 43.7 201.84 44.156C202.296 44.612 203.1 44.84 204.252 44.84H206.556V47H203.856C202.08 47 200.76 46.592 199.896 45.776C199.032 44.936 198.6 43.568 198.6 41.672V29.468H195.864V27.344H198.6V22.412H201.156V27.344H206.556V29.468H201.156Z" fill="url(#paint10_linear_11_60)"/>
<path d="M220.24 26.984C221.728 26.984 223.06 27.296 224.236 27.92C225.436 28.544 226.372 29.504 227.044 30.8C227.74 32.072 228.088 33.632 228.088 35.48V47H225.604V35.768C225.604 33.632 225.064 32 223.984 30.872C222.928 29.744 221.476 29.18 219.628 29.18C217.732 29.18 216.22 29.78 215.092 30.98C213.964 32.18 213.4 33.944 213.4 36.272V47H210.88V20.36H213.4V30.692C214.024 29.516 214.936 28.604 216.136 27.956C217.36 27.308 218.728 26.984 220.24 26.984Z" fill="url(#paint11_linear_11_60)"/>
<defs>
<linearGradient id="paint0_linear_11_60" x1="15.5527" y1="80.2643" x2="15.5527" y2="55.0959" gradientUnits="userSpaceOnUse">
<stop stop-color="#0052D4"/>
<stop offset="1" stop-color="#6FB1FC"/>
</linearGradient>
<linearGradient id="paint1_linear_11_60" x1="49.9309" y1="70.4507" x2="49.9309" y2="35.0023" gradientUnits="userSpaceOnUse">
<stop stop-color="#0052D4"/>
<stop offset="1" stop-color="#6FB1FC"/>
</linearGradient>
<linearGradient id="paint2_linear_11_60" x1="49.9309" y1="35.2252" x2="49.9309" y2="-0.000199462" gradientUnits="userSpaceOnUse">
<stop stop-color="#0052D4"/>
<stop offset="1" stop-color="#6FB1FC"/>
</linearGradient>
<linearGradient id="paint3_linear_11_60" x1="15.5527" y1="54.9131" x2="15.5527" y2="29.5619" gradientUnits="userSpaceOnUse">
<stop stop-color="#0052D4"/>
<stop offset="1" stop-color="#6FB1FC"/>
</linearGradient>
<linearGradient id="paint4_linear_11_60" x1="128.543" y1="57.7287" x2="128.543" y2="17.0002" gradientUnits="userSpaceOnUse">
<stop stop-color="#0052D4"/>
<stop offset="1" stop-color="#6FB1FC"/>
</linearGradient>
<linearGradient id="paint5_linear_11_60" x1="128.543" y1="57.6987" x2="128.543" y2="16.9702" gradientUnits="userSpaceOnUse">
<stop stop-color="#0052D4"/>
<stop offset="1" stop-color="#6FB1FC"/>
</linearGradient>
<linearGradient id="paint6_linear_11_60" x1="184" y1="48.5" x2="183.5" y2="21.5" gradientUnits="userSpaceOnUse">
<stop stop-color="#0052D4"/>
<stop offset="1" stop-color="#6FB1FC"/>
</linearGradient>
<linearGradient id="paint7_linear_11_60" x1="339.319" y1="54.1111" x2="339.9" y2="36.1451" gradientUnits="userSpaceOnUse">
<stop stop-color="#0052D4"/>
<stop offset="1" stop-color="#6FB1FC"/>
</linearGradient>
<linearGradient id="paint8_linear_11_60" x1="222.565" y1="38.1111" x2="222.565" y2="20.3333" gradientUnits="userSpaceOnUse">
<stop stop-color="#0052D4"/>
<stop offset="1" stop-color="#6FB1FC"/>
</linearGradient>
<linearGradient id="paint9_linear_11_60" x1="206.37" y1="38.1111" x2="206.37" y2="20.3333" gradientUnits="userSpaceOnUse">
<stop stop-color="#0052D4"/>
<stop offset="1" stop-color="#6FB1FC"/>
</linearGradient>
<linearGradient id="paint10_linear_11_60" x1="222.978" y1="38.1111" x2="222.978" y2="20.3333" gradientUnits="userSpaceOnUse">
<stop stop-color="#0052D4"/>
<stop offset="1" stop-color="#6FB1FC"/>
</linearGradient>
<linearGradient id="paint11_linear_11_60" x1="257.5" y1="38.1111" x2="257.5" y2="20.3333" gradientUnits="userSpaceOnUse">
<stop stop-color="#0052D4"/>
<stop offset="1" stop-color="#6FB1FC"/>
</linearGradient>
</defs>
</svg>
