<svg width="71" height="81" viewBox="0 0 71 81" fill="none" xmlns="http://www.w3.org/2000/svg">
<path d="M25.352 80.264L0 54.913L25.352 29.562L31.105 35.315L11.507 54.913L31.105 74.511L25.352 80.264Z" fill="url(#paint0_linear_8_19)"/>
<path d="M35.1949 70.451L29.4419 64.697L58.9139 35.225L29.4419 5.753L35.1949 0L70.4199 35.225L35.1949 70.451Z" fill="url(#paint1_linear_8_19)"/>
<path d="M70.4199 35.225H58.9139L29.4419 5.753L35.1949 0L70.4199 35.225Z" fill="url(#paint2_linear_8_19)"/>
<path d="M11.507 54.913H0L25.352 29.562L31.105 35.315L11.507 54.913Z" fill="url(#paint3_linear_8_19)"/>
<defs>
<linearGradient id="paint0_linear_8_19" x1="15.5527" y1="80.2643" x2="15.5527" y2="55.0959" gradientUnits="userSpaceOnUse">
<stop stop-color="#0052D4"/>
<stop offset="1" stop-color="#6FB1FC"/>
</linearGradient>
<linearGradient id="paint1_linear_8_19" x1="49.9309" y1="70.4507" x2="49.9309" y2="35.0023" gradientUnits="userSpaceOnUse">
<stop stop-color="#0052D4"/>
<stop offset="1" stop-color="#6FB1FC"/>
</linearGradient>
<linearGradient id="paint2_linear_8_19" x1="49.9309" y1="35.2252" x2="49.9309" y2="-0.000199462" gradientUnits="userSpaceOnUse">
<stop stop-color="#0052D4"/>
<stop offset="1" stop-color="#6FB1FC"/>
</linearGradient>
<linearGradient id="paint3_linear_8_19" x1="15.5527" y1="54.9131" x2="15.5527" y2="29.5619" gradientUnits="userSpaceOnUse">
<stop stop-color="#0052D4"/>
<stop offset="1" stop-color="#6FB1FC"/>
</linearGradient>
</defs>
</svg>
